<svg xmlns="http://www.w3.org/2000/svg" xmlns:xlink="http://www.w3.org/1999/xlink" width="140" height="192" viewBox="0 0 140 192">
  <defs>
    <style>
      #logo-base {
        fill: #ff5254;
      }

      #logo-arrow {
        fill: #999;
      }

      #logo-eyes {
        fill: #861e1f;
      }

      #logo-mouth {
        fill: #fff;
      }

      #type {
        fill: #4d4d4d;
      }

      #wide {
        visibility: hidden;
      }

      @media (min-width: 370px) {
        #wide {
          visibility: visible;
        }

        #tall {
          visibility: hidden;
        }
      }
    </style>
    <title>Backabit</title>
    <g id="logo">
      <rect id="logo-base" x="13.23" y="45.86" width="73.62" height="73.63" transform="translate(-33.8 34.61) rotate(-28.99)"/>
      <path id="logo-arrow" d="M94.85,14.36A38.91,38.91,0,0,0,26.54,31.14L18.27,16.69l-4.4,2.52L26.54,41.36,48.69,28.73l-2.51-4.41L31.4,32.75a33.83,33.83,0,1,1,60.39,26.4l4.06,3A38.91,38.91,0,0,0,94.85,14.36Z"/>
      <path id="logo-mouth" d="M62.68,104.95A24.46,24.46,0,0,0,74.19,76.4L32.37,99.64A24.47,24.47,0,0,0,62.68,104.95Z"/>
      <g id="logo-eyes">
        <path d="M26.41,89.86a1.82,1.82,0,0,1-1.6-.95c-3-5.51-1.49-12.17,3.39-14.84s11.32-.37,14.34,5.13A1.83,1.83,0,1,1,39.33,81c-2-3.74-6.26-5.4-9.38-3.68S26,83.41,28,87.15A1.83,1.83,0,0,1,26.41,89.86Z"/>
        <path d="M53.54,75a1.82,1.82,0,0,1-1.6-.95c-3-5.51-1.49-12.17,3.39-14.85s11.32-.37,14.34,5.13a1.83,1.83,0,0,1-3.2,1.76c-2-3.74-6.26-5.39-9.38-3.69s-4,6.15-1.94,9.89A1.83,1.83,0,0,1,53.54,75Z"/>
      </g>
    </g>
    <g id="type">
      <path d="M0,0H4.23V14.32H4.36a4.92,4.92,0,0,1,2-2,6.24,6.24,0,0,1,2.8-.61c2.93,0,4.84,2.45,4.84,5.8v25c0,5.59-2.73,7.23-5.46,7.23-2.52,0-3.48-1.3-4.5-2.73H4v2.32H0V0ZM9.82,19.78c0-2.73-.82-4.3-2.52-4.3s-3.07,1.77-3.07,4.09V42.15c0,3,1.43,4.09,3.14,4.09s2.46-1.36,2.46-4V19.78Z"/>
      <path d="M29.88,18.21c0-2.25-.75-3.14-2.45-3.14-2.39,0-2.73,1.43-2.73,3.61v3.48H20.46V17.8c0-3.82,3.21-6.14,7.09-6.14,4.09,0,6.55,1.7,6.55,6.48v31.1h-4v-2H30a5.6,5.6,0,0,1-4.91,2.39c-3.27,0-5-2.39-5-6.14V33.42c0-4.64,3.14-7.16,9.82-7.16v-8Zm0,11.46c-2.18,0-5.59.89-5.59,4v8.46c0,2.66.41,4.09,2.66,4.09,1.84,0,2.93-1.36,2.93-3.82V29.67Z"/>
      <path d="M48.74,18.14c0-2.32-.61-3.07-2-3.07s-2.32,1-2.32,3.07v25.3c0,1.91.54,2.8,2.11,2.8s2.18-1.09,2.18-2.8v-6H53v5.93c0,4-2.25,6.27-6.34,6.27-3.41,0-6.41-1.71-6.41-5.59V18.82c0-5.66,3.41-7.16,7-7.16s5.73,2,5.73,6v6.21H48.74V18.14Z"/>
      <path d="M58.9,0h4.23V27.07h0.14l6.14-15h4.5l-7,15.75,7.57,21.41h-4.5l-6.68-20H63.13v20H58.9V0Z"/>
      <path d="M88.17,18.21c0-2.25-.75-3.14-2.46-3.14-2.39,0-2.73,1.43-2.73,3.61v3.48H78.75V17.8c0-3.82,3.21-6.14,7.09-6.14,4.09,0,6.55,1.7,6.55,6.48v31.1h-4v-2H88.3a5.6,5.6,0,0,1-4.91,2.39c-3.27,0-5-2.39-5-6.14V33.42c0-4.64,3.14-7.16,9.82-7.16v-8Zm0,11.46c-2.18,0-5.59.89-5.59,4v8.46c0,2.66.41,4.09,2.66,4.09,1.84,0,2.93-1.36,2.93-3.82V29.67Z"/>
      <path d="M99,0h4.23V14.32h0.14a4.92,4.92,0,0,1,2-2,6.24,6.24,0,0,1,2.8-.61c2.93,0,4.84,2.45,4.84,5.8v25c0,5.59-2.73,7.23-5.46,7.23-2.52,0-3.48-1.3-4.5-2.73H103v2.32H99V0Zm9.82,19.78c0-2.73-.82-4.3-2.52-4.3s-3.07,1.77-3.07,4.09V42.15c0,3,1.43,4.09,3.14,4.09s2.45-1.36,2.45-4V19.78Z"/>
      <path d="M118.8,0h4.5V5.18h-4.5V0Zm0.14,12.07h4.23V49.24h-4.23V12.07Z"/>
      <path d="M130.53,7.09l4.23-1.64v6.62h3v3.41h-3V43.72a1.82,1.82,0,0,0,2.11,2.11h0.89v3.41h-2c-3.55,0-5.18-1.71-5.18-4.57V15.48h-2.11V12.07h2.11v-5Z"/>
    </g>
  </defs>
  <g id="tall">
    <use xlink:href="#logo" x="16" y="0"/>
    <use xlink:href="#type" x="0" y="142"/>
  </g>
  <g id="wide">
    <use xlink:href="#logo" x="-80" y="0" transform="scale(1.45)"/>
    <use xlink:href="#type" x="38" y="48" transform="scale(1.45)"/>
  </g>
</svg>
