<svg id="Layer_1" data-name="Layer 1" xmlns="http://www.w3.org/2000/svg" width="85.05" height="108.97" viewBox="0 0 85.05 108.97"><title>logo-backabit</title><rect x="278.69" y="53.72" width="60.45" height="60.46" transform="translate(-269.8 144.18) rotate(-28.99)" fill="#ff5254"/><path d="M346.53,67.12l-3.33-2.49a27.79,27.79,0,1,0-49.91-19.46l-4.14-.43A31.95,31.95,0,1,1,346.53,67.12Z" transform="translate(-267.83 -16.06)" fill="#999"/><polygon points="21.79 33.96 11.39 15.78 15 13.71 23.34 28.28 37.92 19.98 39.98 23.59 21.79 33.96" fill="#999"/><path d="M319.3,102.24a20.09,20.09,0,0,0,9.45-23.44L294.4,97.88A20.09,20.09,0,0,0,319.3,102.24Z" transform="translate(-267.83 -16.06)" fill="#fff"/><path d="M289.51,89.85a1.5,1.5,0,0,1-1.32-.78c-2.48-4.52-1.23-10,2.79-12.19s9.3-.31,11.77,4.21a1.5,1.5,0,0,1-2.63,1.44c-1.68-3.07-5.14-4.43-7.7-3s-3.28,5-1.6,8.12A1.5,1.5,0,0,1,289.51,89.85Z" transform="translate(-267.83 -16.06)" fill="#861e1f"/><path d="M311.79,77.64a1.5,1.5,0,0,1-1.32-.78c-2.48-4.52-1.23-10,2.79-12.19s9.29-.31,11.77,4.22a1.5,1.5,0,1,1-2.63,1.44c-1.68-3.07-5.14-4.43-7.7-3s-3.28,5-1.6,8.12A1.5,1.5,0,0,1,311.79,77.64Z" transform="translate(-267.83 -16.06)" fill="#861e1f"/></svg>