<svg id="Layer_1" data-name="Layer 1" xmlns="http://www.w3.org/2000/svg" width="43.96" height="44" viewBox="0 0 43.96 44"><title>logo-colorpeek</title><path d="M205.34,6.43a21.94,21.94,0,0,0-36.15,22.94c2.42,6.25,6.85,3.36,7.32,2.9l0.14-.1,0.09-.11c1-1,1.24-1.56,1.24-4a1.17,1.17,0,0,1,.35-0.83l9.82-9.82a7.39,7.39,0,0,1-.57-1.08,1.14,1.14,0,0,1-.06-0.22h0v0a1.16,1.16,0,0,1,0-.52v0a1.19,1.19,0,0,1,.1-0.23l0,0a1.23,1.23,0,0,1,.16-0.21l1.38-1.38h0a1.18,1.18,0,0,1,.21-0.16l0,0a1.09,1.09,0,0,1,.23-0.1h0a1.17,1.17,0,0,1,.52,0h0l0.21,0.06a7.59,7.59,0,0,1,1.07.57l4.36-4.36a4.5,4.5,0,0,1,3.17-1.38,4.51,4.51,0,0,1,3.12,7.67l-4.37,4.37a6.5,6.5,0,0,1,.51,1,1.17,1.17,0,0,1,0,.74v0a1.18,1.18,0,0,1-.11.24l0,0a1.13,1.13,0,0,1-.16.21l-1.38,1.38-0.18.15-0.16.09,0,0-0.15,0-0.07,0-0.18,0h-0.05l-0.21,0h0l-0.15,0a6.45,6.45,0,0,1-1-.51l-9.84,9.84a1.17,1.17,0,0,1-.83.35c-2.41,0-3,.26-4,1.24l-0.12.1a0.76,0.76,0,0,1-.09.12c-0.46.46-3.35,4.89,2.9,7.31A21.94,21.94,0,0,0,205.34,6.43Z" transform="translate(-167.85 0)" fill="#64bc6c"/><path d="M191,20.89c-0.55-.55-1-1.07-1.42-1.54l-9.23,9.23a7.12,7.12,0,0,1-.85,3.81,7.12,7.12,0,0,1,3.81-.85l9.23-9.23C192,21.91,191.52,21.45,191,20.89Z" transform="translate(-167.85 0)" fill="#64bc6c"/></svg>