<svg xmlns="http://www.w3.org/2000/svg" xmlns:xlink="http://www.w3.org/1999/xlink" width="960" height="700" viewBox="0 0 960 700">
  <defs>
    <style>
      .cls-1, .cls-13, .cls-8, .cls-9 {
        fill: none;
      }

      .cls-3 {
        fill: #4d4d4d;
      }

      .cls-4 {
        fill: #111;
      }

      .cls-5 {
        fill: #fff;
      }

      .cls-6 {
        fill: #e6e6e6;
      }

      .cls-7 {
        opacity: 0.15;
      }

      .cls-8 {
        stroke: #000;
      }

      .cls-13, .cls-8, .cls-9 {
        stroke-linecap: round;
      }

      .cls-8, .cls-9 {
        stroke-miterlimit: 10;
        stroke-width: 10px;
      }

      .cls-9 {
        stroke: #ffbc80;
      }

      .cls-10 {
        clip-path: url(#clip-path);
      }

      .cls-11 {
        fill: #647487;
      }

      .cls-12 {
        fill: #d0eff7;
      }

      .cls-13 {
        stroke: #647487;
        stroke-linejoin: round;
        stroke-width: 5px;
      }

      .cls-14 {
        fill: #ffbc80;
      }
    </style>
    <clipPath id="clip-path">
      <path class="cls-1" d="M807,303V469.51h12.33L817.5,462s-2.83-15.83,11.08-11.08,13.92,12.75,13.92,12.75,2.17-6,12.5-4a24.79,24.79,0,0,1,15.33,9.85h10.33V303H807Z"/>
    </clipPath>
  </defs>
  <title>standards</title>
  <g>
    <ellipse class="cls-3" cx="728" cy="458.23" rx="63" ry="31.67"/>
    <path class="cls-4" d="M728,449.13c-26.85,0-48.61,10.94-48.61,24.44a13.15,13.15,0,0,0,1.27,5.55c11.55,6.61,28.47,10.79,47.34,10.79s35.79-4.18,47.34-10.79a13.15,13.15,0,0,0,1.27-5.55C776.61,460.07,754.85,449.13,728,449.13Z"/>
  </g>
  <g>
    <polygon class="cls-5" points="665 557.61 265 450.43 265 150.43 665 257.61 665 557.61"/>
    <polygon class="cls-3" points="695 549.57 665 557.61 665 257.61 695 249.57 695 549.57"/>
    <polygon class="cls-6" points="665 257.61 265 150.43 295 142.39 695 249.57 665 257.61"/>
  </g>
  <g class="cls-7">
    <polyline class="cls-8" points="316.54 159.29 316.54 464.67 226.04 494.05"/>
    <polyline class="cls-8" points="376.54 175.37 376.54 480.33 282.96 510.04"/>
    <line class="cls-8" x1="316.54" y1="172.42" x2="376.54" y2="188.5"/>
    <line class="cls-8" x1="316.54" y1="224.93" x2="376.54" y2="241.01"/>
    <line class="cls-8" x1="316.54" y1="277.44" x2="376.54" y2="293.52"/>
    <line class="cls-8" x1="316.54" y1="329.95" x2="376.54" y2="346.03"/>
    <line class="cls-8" x1="316.54" y1="382.46" x2="376.54" y2="398.54"/>
    <line class="cls-8" x1="316.54" y1="434.97" x2="376.54" y2="451.05"/>
    <line class="cls-8" x1="286.54" y1="473.79" x2="346.54" y2="489.87"/>
    <line class="cls-8" x1="314.9" y1="464.26" x2="374.9" y2="480.33"/>
    <line class="cls-8" x1="256.04" y1="483.96" x2="316.04" y2="500.04"/>
  </g>
  <g>
    <line class="cls-9" x1="318.37" y1="153.96" x2="227.27" y2="493.96"/>
    <line class="cls-9" x1="374.06" y1="170.04" x2="282.96" y2="510.04"/>
    <line class="cls-9" x1="315.69" y1="163.96" x2="371.38" y2="180.04"/>
    <line class="cls-9" x1="304.97" y1="203.96" x2="360.67" y2="220.04"/>
    <line class="cls-9" x1="294.26" y1="243.96" x2="349.95" y2="260.04"/>
    <line class="cls-9" x1="283.54" y1="283.96" x2="339.23" y2="300.04"/>
    <line class="cls-9" x1="272.82" y1="323.96" x2="328.51" y2="340.04"/>
    <line class="cls-9" x1="262.1" y1="363.96" x2="317.79" y2="380.04"/>
    <line class="cls-9" x1="251.38" y1="403.96" x2="307.08" y2="420.04"/>
    <line class="cls-9" x1="240.67" y1="443.96" x2="296.36" y2="460.04"/>
    <line class="cls-9" x1="229.95" y1="483.96" x2="285.64" y2="500.04"/>
  </g>
  <g>
    <ellipse class="cls-3" cx="465" cy="571.17" rx="63" ry="31.67"/>
    <path class="cls-4" d="M465,562.07c-26.85,0-48.61,10.94-48.61,24.44a13.15,13.15,0,0,0,1.27,5.55c11.55,6.61,28.47,10.79,47.34,10.79s35.79-4.18,47.34-10.79a13.15,13.15,0,0,0,1.27-5.55C513.61,573,491.85,562.07,465,562.07Z"/>
  </g>
  <g class="cls-10">
    <g>
      <path class="cls-11" d="M867.5,428.95c0,5.81-2,22.59-5.31,31.08-4.58,11.67-19.69,12.23-19.69,12.23s-15.12-8.68-19.7-22.82c-3.32-10.26-5.3-28.08-5.3-33.88A252.85,252.85,0,0,0,867.5,428.95Z"/>
      <path class="cls-12" d="M842.5,472.25s15.11-.56,19.69-12.23c3.33-8.49,5.31-25.26,5.31-31.08-9,7.52-25,4.68-25,4.68v38.63Z"/>
      <polygon class="cls-13" points="857.5 319.36 827.5 311.32 827.5 329.32 857.5 337.36 857.5 319.36"/>
      <g>
        <polygon class="cls-11" points="846.5 344.41 838.5 342.27 838.5 332.27 846.5 334.41 846.5 344.41"/>
        <polygon class="cls-11" points="846.5 428.32 838.5 426.18 838.5 386.18 846.5 388.32 846.5 428.32"/>
        <polygon class="cls-14" points="846.5 388.32 838.5 386.18 838.5 342.27 846.5 344.41 846.5 388.32"/>
      </g>
    </g>
  </g>
</svg>
